0
SECTION
2
HEADER
9
$INSUNITS
70
4
9
$ACADVER
1
AC1014
9
$HANDSEED
5
FFFF
0
ENDSEC
0
SECTION
2
TABLES
0
TABLE
2
VPORT
5
8
100
AcDbSymbolTable
0
ENDTAB
0
TABLE
2
LTYPE
5
5
100
AcDbSymbolTable
0
LTYPE
5
14
100
AcDbSymbolTableRecord
100
AcDbLinetypeTableRecord
2
BYBLOCK
70
0
0
LTYPE
5
15
100
AcDbSymbolTableRecord
100
AcDbLinetypeTableRecord
2
BYLAYER
70
0
0
LTYPE
5
16
100
AcDbSymbolTableRecord
100
AcDbLinetypeTableRecord
2
DASHED
70
0
3
Dashed __ __ __ __ __ __ __ __ __ __ __ __ __ _
72
65
73
2
40
0.75
49
0.5
74
0
49
-0.25
74
0
0
ENDTAB
0
TABLE
2
LAYER
5
2
100
AcDbSymbolTable
70
2
0
LAYER
5
50
100
AcDbSymbolTableRecord
100
AcDbLayerTableRecord
2
0
70
0
62
7
6
CONTINUOUS
0
ENDTAB
0
TABLE
2
STYLE
5
3
100
AcDbSymbolTable
70
1
0
STYLE
5
11
100
AcDbSymbolTableRecord
100
AcDbTextStyleTableRecord
2
STANDARD
70
0
0
ENDTAB
0
TABLE
2
VIEW
5
6
100
AcDbSymbolTable
70
0
0
ENDTAB
0
TABLE
2
UCS
5
7
100
AcDbSymbolTable
70
0
0
ENDTAB
0
TABLE
2
APPID
5
9
100
AcDbSymbolTable
70
2
0
APPID
5
12
100
AcDbSymbolTableRecord
100
AcDbRegAppTableRecord
2
ACAD
70
0
0
ENDTAB
0
TABLE
2
DIMSTYLE
5
A
100
AcDbSymbolTable
70
1
0
ENDTAB
0
TABLE
2
BLOCK_RECORD
5
1
100
AcDbSymbolTable
70
1
0
BLOCK_RECORD
5
1F
100
AcDbSymbolTableRecord
100
AcDbBlockTableRecord
2
*MODEL_SPACE
0
BLOCK_RECORD
5
1B
100
AcDbSymbolTableRecord
100
AcDbBlockTableRecord
2
*PAPER_SPACE
0
ENDTAB
0
ENDSEC
0
SECTION
2
BLOCKS
0
BLOCK
5
20
100
AcDbEntity
100
AcDbBlockBegin
2
*MODEL_SPACE
0
ENDBLK
5
21
100
AcDbEntity
100
AcDbBlockEnd
0
BLOCK
5
1C
100
AcDbEntity
100
AcDbBlockBegin
2
*PAPER_SPACE
0
ENDBLK
5
1D
100
AcDbEntity
100
AcDbBlockEnd
0
ENDSEC
0
SECTION
2
ENTITIES
0
LWPOLYLINE
5
100
100
AcDbEntity
8
0
100
AcDbPolyline
90
28
70
1
43
0.0
10
-22.458732792005044
20
-8.1470116091167899
42
0.53260597511941188
10
-23.384866103015565
20
-9.5242079641319162
42
0.10895773197477895
10
-17.209729707684943
20
-18.476679988256187
42
0.48164826403279265
10
-15.662968752796607
20
-18.246378775536417
42
-1.0836758797713477
10
-11.565245532917681
20
-21.083264081606444
42
0.48164826403279498
10
-11.236347611902689
20
-22.612098362259285
42
0.23476504366475745
10
11.23634761190274
20
-22.612098362259253
42
0.48164826403279287
10
11.565245532917723
20
-21.083264081606412
42
-1.0836758797713497
10
15.662968752796562
20
-18.246378775536446
42
0.48164826403279343
10
17.2097297076849
20
-18.476679988256219
42
0.055841243064887074
10
20.871716991486089
20
-14.210345872895241
42
0.36789785641859513
10
20.732897014997246
20
-12.921643242931868
10
19.778896137911762
20
-12.017758103473801
42
-0.34155524086034261
10
19.591098972217342
20
-10.808768017715259
42
0.26675460969154241
10
19.207588127420529
20
11.476462143333803
42
0.16892288243895379
10
17.3926212582547
20
12.997551339971398
42
-0.58580511943135516
10
16.748994036450057
20
17.31116853103272
42
0.46908614613070188
10
16.802032492834034
20
18.848188350866767
42
0.38101412146795682
10
-16.802032492833966
20
18.848188350866824
42
0.46908614613070632
10
-16.74899403645
20
17.311168531032777
42
-1.039704687989667
10
-19.96001367097352
20
13.483442119778157
42
0.46908614613070254
10
-21.482838434293985
20
13.268389231780237
42
0.10347967318701928
10
-25.00002298734282
20
3.5441995756914091
42
0.45608953141334185
10
-24.009923067052014
20
2.4038352360600479
10
-21.480304546183355
20
2.4038352360600515
42
-0.41421356237309503
10
-20.480304546183351
20
1.4038352360600506
10
-20.480304546183351
20
-7.1470116091167935
42
-0.41421356237309631
10
-21.480304546183358
20
-8.1470116091167935
0
CIRCLE
5
101
100
AcDbEntity
8
0
100
AcDbCircle
10
9
20
-18
30
0
40
1.2499999999999989
210
0
220
-0
230
1
6
DASHED
0
CIRCLE
5
102
100
AcDbEntity
8
0
100
AcDbCircle
10
-9
20
-18
30
0
40
1.25
210
0
220
-0
230
1
6
DASHED
0
CIRCLE
5
103
100
AcDbEntity
8
0
100
AcDbCircle
10
0
20
13
30
0
40
1.25
210
0
220
-0
230
1
6
DASHED
0
CIRCLE
5
104
100
AcDbEntity
8
0
100
AcDbCircle
10
9
20
-18
30
0
40
0.75000000000000011
210
0
220
0
230
1
0
CIRCLE
5
105
100
AcDbEntity
8
0
100
AcDbCircle
10
-9
20
-18
30
0
40
0.75000000000000011
210
0
220
0
230
1
0
CIRCLE
5
106
100
AcDbEntity
8
0
100
AcDbCircle
10
0
20
13
30
0
40
0.75000000000000011
210
0
220
0
230
1
0
ENDSEC
0
SECTION
2
OBJECTS
0
DICTIONARY
5
C
100
AcDbDictionary
3
ACAD_GROUP
350
D
3
ACAD_MLINESTYLE
350
17
0
DICTIONARY
5
D
100
AcDbDictionary
0
DICTIONARY
5
1A
330
C
100
AcDbDictionary
0
DICTIONARY
5
17
100
AcDbDictionary
0
ENDSEC
0
EOF
